<svg width="32" height="32" viewBox="0 0 32 32" fill="none" xmlns="http://www.w3.org/2000/svg">
<path d="M30.6667 8.00001V2.66668C30.6667 2.31305 30.5262 1.97392 30.2762 1.72387C30.0261 1.47382 29.687 1.33334 29.3334 1.33334H2.66671C2.31309 1.33334 1.97395 1.47382 1.7239 1.72387C1.47385 1.97392 1.33337 2.31305 1.33337 2.66668V8.00001H30.6667Z" fill="#007CBE"/>
<path d="M1.33337 10.6667V29.3334C1.33337 29.687 1.47385 30.0261 1.7239 30.2762C1.97395 30.5262 2.31309 30.6667 2.66671 30.6667H9.33337V10.6667H1.33337Z" fill="#FFBD84"/>
<path d="M12 30.6667H29.3333C29.687 30.6667 30.0261 30.5262 30.2761 30.2762C30.5262 30.0261 30.6667 29.687 30.6667 29.3334V10.6667H12V30.6667Z" fill="#FF7F11"/>
</svg>
