<svg width="185" height="47" viewBox="0 0 185 47" fill="none" xmlns="http://www.w3.org/2000/svg">
<g clip-path="url(#clip0_1972_3295)">
<circle cx="54.8333" cy="23.5" r="23.5" fill="#FFA400"/>
<circle cx="23.5" cy="23.5" r="23.5" fill="#007CBE"/>
<ellipse cx="39.4194" cy="23.7527" rx="23.7527" ry="23.2473" fill="#EA526F"/>
<rect x="36.0264" y="7.01228" width="6.78983" height="34.3607" fill="white"/>
<rect x="28.0021" y="23.061" width="6.78983" height="22.6328" transform="rotate(-90 28.0021 23.061)" fill="white"/>
</g>
<path d="M97.1607 13.785C97.2476 13.7416 97.3779 13.7199 97.5516 13.7199C97.7253 13.7199 97.8773 13.7923 98.0076 13.937C98.1379 14.0673 98.2031 14.2193 98.2031 14.3931C98.2031 14.7116 98.0655 14.9432 97.7905 15.088C97.2403 15.4064 96.6468 15.667 96.0098 15.8697C95.3873 16.0724 94.6273 16.1737 93.7297 16.1737C92.8466 16.1737 92.0214 16.029 91.2541 15.7394C90.5013 15.4499 89.8499 15.03 89.2997 14.4799C88.1126 13.3218 87.5191 11.7583 87.5191 9.7894C87.5191 7.83501 88.1126 6.27151 89.2997 5.09887C90.4434 3.96967 91.9273 3.40507 93.7514 3.40507C94.6345 3.40507 95.3873 3.51365 96.0098 3.7308C96.6468 3.94796 97.1318 4.15064 97.4647 4.33884C97.7977 4.51256 98.0004 4.65733 98.0728 4.77314C98.1596 4.87448 98.2031 5.01201 98.2031 5.18574C98.2031 5.35946 98.1379 5.51871 98.0076 5.66347C97.8773 5.79377 97.7253 5.85891 97.5516 5.85891C97.3923 5.85891 97.2621 5.8372 97.1607 5.79377C96.683 5.53318 96.1908 5.33051 95.6841 5.18574C95.1919 5.02649 94.5766 4.94687 93.8383 4.94687C93.0999 4.94687 92.4268 5.07716 91.8187 5.33774C91.2252 5.58385 90.7257 5.92406 90.3204 6.35837C89.5241 7.22698 89.1333 8.37066 89.1477 9.7894C89.1477 11.2081 89.5386 12.3518 90.3204 13.2204C91.189 14.1614 92.3833 14.6319 93.9034 14.6319C94.5983 14.6319 95.1919 14.5595 95.6841 14.4148C96.1908 14.2555 96.683 14.0456 97.1607 13.785ZM109.821 3.49194C110.038 3.49194 110.226 3.57156 110.385 3.7308C110.545 3.89005 110.624 4.08549 110.624 4.31712V15.2834C110.624 15.5005 110.545 15.6887 110.385 15.848C110.226 16.0072 110.038 16.0869 109.821 16.0869C109.604 16.0869 109.415 16.0072 109.256 15.848C109.097 15.6887 109.017 15.5005 109.017 15.2834V10.5712H102.264V15.2834C102.264 15.5005 102.184 15.6887 102.025 15.848C101.866 16.0072 101.67 16.0869 101.439 16.0869C101.221 16.0869 101.033 16.0072 100.874 15.848C100.715 15.6887 100.635 15.5005 100.635 15.2834V4.31712C100.635 4.09997 100.715 3.91177 100.874 3.75252C101.033 3.5788 101.221 3.49194 101.439 3.49194C101.656 3.49194 101.844 3.57156 102.003 3.7308C102.177 3.89005 102.264 4.08549 102.264 4.31712V9.05108H109.017V4.31712C109.017 4.09997 109.097 3.91177 109.256 3.75252C109.415 3.5788 109.604 3.49194 109.821 3.49194ZM123.74 15.2834C123.74 15.5005 123.661 15.6887 123.501 15.848C123.357 16.0072 123.161 16.0869 122.915 16.0869C122.684 16.0869 122.488 16.0145 122.329 15.8697C122.184 15.7249 122.112 15.5295 122.112 15.2834V14.7405C122.112 13.785 122.003 13.0829 121.786 12.6341C121.583 12.1853 121.294 11.8306 120.917 11.5701C120.555 11.295 120.034 11.1575 119.354 11.1575H115.684V15.2834C115.684 15.5005 115.604 15.6887 115.445 15.848C115.286 16.0072 115.09 16.0869 114.859 16.0869C114.642 16.0869 114.453 16.0072 114.294 15.848C114.135 15.6887 114.055 15.5005 114.055 15.2834V4.40398C114.055 4.18683 114.135 3.99863 114.294 3.83938C114.453 3.66566 114.642 3.5788 114.859 3.5788H119.006C120.628 3.5788 121.858 3.92624 122.698 4.62114C123.48 5.2726 123.863 6.12674 123.849 7.18355C123.849 7.86397 123.653 8.50819 123.263 9.11622C122.886 9.70978 122.3 10.1368 121.504 10.3974C122.358 10.6146 122.98 11.2371 123.371 12.265C123.632 12.9309 123.755 13.6692 123.74 14.4799V15.2834ZM118.898 9.61568C119.897 9.61568 120.7 9.42748 121.308 9.05108C121.916 8.6602 122.22 8.08112 122.22 7.31384C122.22 6.60447 121.981 6.06883 121.504 5.70691C120.939 5.30155 120.041 5.09887 118.811 5.09887H115.684V9.61568H118.898ZM127.519 3.49194C127.736 3.49194 127.924 3.57156 128.083 3.7308C128.257 3.89005 128.344 4.08549 128.344 4.31712V15.2834C128.344 15.5005 128.264 15.6887 128.105 15.848C127.946 16.0072 127.75 16.0869 127.519 16.0869C127.302 16.0869 127.113 16.0072 126.954 15.848C126.795 15.6887 126.715 15.5005 126.715 15.2834V4.31712C126.715 4.09997 126.795 3.91177 126.954 3.75252C127.113 3.5788 127.302 3.49194 127.519 3.49194ZM135.51 14.6536C137.58 14.6536 138.623 13.966 138.637 12.5907C138.637 12.0261 138.239 11.5773 137.443 11.2443C137.095 11.0996 136.69 10.9693 136.227 10.8535C135.778 10.7376 135.322 10.6146 134.859 10.4843C134.395 10.354 133.932 10.2092 133.469 10.05C133.006 9.87626 132.6 9.65911 132.253 9.39852C131.471 8.80497 131.073 8.02321 131.058 7.05326C131.058 6.01092 131.457 5.15678 132.253 4.49084C133.107 3.767 134.251 3.40507 135.684 3.40507C136.987 3.40507 138.159 3.60051 139.202 3.99139C139.535 4.1072 139.708 4.34607 139.723 4.708C139.723 4.88172 139.658 5.04821 139.527 5.20745C139.412 5.3667 139.274 5.44632 139.115 5.44632C138.97 5.44632 138.767 5.40289 138.507 5.31603C137.725 5.04097 136.842 4.90344 135.858 4.90344C134.945 4.90344 134.193 5.07716 133.599 5.42461C132.991 5.78653 132.687 6.28598 132.687 6.92297C132.687 7.58891 133.078 8.10284 133.86 8.46476C134.222 8.62401 134.627 8.76154 135.076 8.87735C135.525 8.97869 135.988 9.08727 136.466 9.20308C136.943 9.3189 137.399 9.46367 137.834 9.63739C138.282 9.79664 138.688 9.99931 139.05 10.2454C139.831 10.81 140.23 11.6352 140.244 12.721C140.244 13.7344 139.831 14.5595 139.006 15.1965C138.167 15.848 137.059 16.1737 135.684 16.1737C134.178 16.1737 132.767 15.8914 131.449 15.3268C131.319 15.2689 131.203 15.1748 131.102 15.0445C131.001 14.8998 130.95 14.7405 130.95 14.5668C130.95 14.3931 131.015 14.2338 131.145 14.089C131.276 13.9298 131.42 13.8502 131.58 13.8502C131.753 13.8502 131.963 13.9081 132.209 14.0239C132.47 14.1397 132.89 14.2772 133.469 14.4365C134.048 14.5813 134.728 14.6536 135.51 14.6536ZM150.841 3.5788C151.058 3.5788 151.239 3.65842 151.384 3.81767C151.529 3.96244 151.601 4.13616 151.601 4.33884C151.601 4.54151 151.529 4.72247 151.384 4.88172C151.239 5.02649 151.058 5.09887 150.841 5.09887H147.215V15.2834C147.215 15.5005 147.135 15.6887 146.976 15.848C146.831 16.0072 146.643 16.0869 146.411 16.0869C146.194 16.0869 146.006 16.0072 145.847 15.848C145.687 15.6887 145.608 15.5005 145.608 15.2834V5.09887H141.981C141.779 5.09887 141.598 5.02649 141.438 4.88172C141.294 4.73695 141.221 4.55599 141.221 4.33884C141.221 4.13616 141.294 3.96244 141.438 3.81767C141.583 3.65842 141.764 3.5788 141.981 3.5788H150.841ZM154.359 3.49194C154.576 3.49194 154.764 3.57156 154.924 3.7308C155.097 3.89005 155.184 4.08549 155.184 4.31712V15.2834C155.184 15.5005 155.105 15.6887 154.945 15.848C154.786 16.0072 154.591 16.0869 154.359 16.0869C154.142 16.0869 153.954 16.0072 153.794 15.848C153.635 15.6887 153.556 15.5005 153.556 15.2834V4.31712C153.556 4.09997 153.635 3.91177 153.794 3.75252C153.954 3.5788 154.142 3.49194 154.359 3.49194ZM168.735 14.9359C168.793 15.0807 168.822 15.2327 168.822 15.392C168.822 15.5367 168.749 15.6887 168.604 15.848C168.474 16.0072 168.25 16.0869 167.931 16.0869C167.627 16.0869 167.403 15.9204 167.258 15.5874L166.107 12.8296H160.048L158.919 15.5874C158.775 15.9204 158.543 16.0869 158.224 16.0869C157.92 16.0869 157.696 16.0072 157.551 15.848C157.421 15.6887 157.356 15.5367 157.356 15.392C157.356 15.2327 157.385 15.0807 157.443 14.9359L161.959 4.23026C162.162 3.73804 162.51 3.49194 163.002 3.49194H163.175C163.653 3.49194 164.001 3.73804 164.218 4.23026L168.735 14.9359ZM165.499 11.3529L163.089 5.5549L160.678 11.3529H165.499ZM181.004 3.49194C181.221 3.49194 181.409 3.57156 181.568 3.7308C181.728 3.89005 181.807 4.08549 181.807 4.31712V14.9359C181.807 15.2544 181.691 15.5295 181.46 15.7611C181.228 15.9783 180.953 16.0869 180.635 16.0869H180.418C180.027 16.0869 179.715 15.9276 179.484 15.6091L172.6 5.66347V15.2834C172.6 15.5005 172.52 15.6887 172.361 15.848C172.202 16.0072 172.006 16.0869 171.775 16.0869C171.558 16.0869 171.369 16.0072 171.21 15.848C171.051 15.6887 170.971 15.5005 170.971 15.2834V4.66457C170.971 4.34607 171.08 4.07101 171.297 3.83938C171.529 3.60775 171.811 3.49194 172.144 3.49194H172.361C172.738 3.49194 173.07 3.6729 173.36 4.03482L180.2 13.9153V4.31712C180.2 4.09997 180.28 3.91177 180.439 3.75252C180.598 3.5788 180.787 3.49194 181.004 3.49194Z" fill="white"/>
<path d="M94.9467 31.3063C95.131 31.3063 95.2889 31.3787 95.4205 31.5234C95.5653 31.655 95.6377 31.8196 95.6377 32.017C95.6377 32.2012 95.5653 32.3592 95.4205 32.4908C95.2889 32.6224 95.131 32.6882 94.9467 32.6882H88.4519C88.2545 32.6882 88.0834 32.6158 87.9386 32.471C87.7938 32.3262 87.7214 32.1552 87.7214 31.9577V22.1463C87.7214 21.9489 87.7938 21.7778 87.9386 21.6331C88.0834 21.4751 88.2545 21.3962 88.4519 21.3962H94.9467C95.131 21.3962 95.2889 21.4686 95.4205 21.6133C95.5653 21.7449 95.6377 21.9029 95.6377 22.0871C95.6377 22.2714 95.5653 22.4359 95.4205 22.5806C95.2889 22.7123 95.131 22.7781 94.9467 22.7781H89.202V26.3512H94.3545C94.5388 26.3512 94.6967 26.417 94.8283 26.5486C94.9731 26.6802 95.0454 26.8448 95.0454 27.0422C95.0454 27.2264 94.9796 27.3909 94.848 27.5357C94.7164 27.6673 94.5519 27.7331 94.3545 27.7331H89.202V31.3063H94.9467ZM102.014 21.3962C103.817 21.3962 105.252 22.0016 106.318 23.2124C106.792 23.7388 107.14 24.3376 107.364 25.0088C107.601 25.68 107.719 26.3578 107.719 27.0422C107.719 27.7265 107.601 28.4043 107.364 29.0755C107.14 29.7467 106.792 30.3455 106.318 30.872C105.252 32.0828 103.817 32.6882 102.014 32.6882H98.7568C98.5594 32.6882 98.3883 32.6158 98.2435 32.471C98.0988 32.3262 98.0264 32.1552 98.0264 31.9577V22.1463C98.0264 21.9489 98.0988 21.7778 98.2435 21.6331C98.3883 21.4751 98.5594 21.3962 98.7568 21.3962H102.014ZM101.836 31.3063C103.179 31.3063 104.258 30.9115 105.074 30.1218C105.877 29.3322 106.278 28.3056 106.278 27.0422C106.278 25.7787 105.877 24.7522 105.074 23.9625C104.258 23.1729 103.179 22.7781 101.836 22.7781H99.507V31.3063H101.836ZM118.617 21.3172C118.814 21.3172 118.985 21.3896 119.13 21.5344C119.288 21.6791 119.367 21.8568 119.367 22.0674V28.4635C119.367 29.8718 118.86 30.9773 117.847 31.7801C116.978 32.4908 115.932 32.8461 114.708 32.8461C113.471 32.8461 112.424 32.4908 111.569 31.7801C110.569 30.9641 110.069 29.8586 110.069 28.4635V22.0674C110.069 21.87 110.141 21.6989 110.286 21.5541C110.43 21.3962 110.602 21.3172 110.799 21.3172C110.996 21.3172 111.167 21.3896 111.312 21.5344C111.47 21.6791 111.549 21.8568 111.549 22.0674V28.503C111.549 29.4638 111.878 30.2139 112.536 30.7535C113.142 31.2536 113.865 31.5037 114.708 31.5037C115.563 31.5037 116.294 31.2536 116.899 30.7535C117.557 30.2008 117.886 29.4506 117.886 28.503V22.0674C117.886 21.87 117.958 21.6989 118.103 21.5541C118.248 21.3962 118.419 21.3172 118.617 21.3172ZM130.501 30.6746C130.58 30.6351 130.698 30.6153 130.856 30.6153C131.014 30.6153 131.152 30.6811 131.271 30.8128C131.389 30.9312 131.448 31.0694 131.448 31.2273C131.448 31.5169 131.323 31.7274 131.073 31.859C130.573 32.1486 130.034 32.3855 129.454 32.5697C128.889 32.754 128.198 32.8461 127.382 32.8461C126.579 32.8461 125.829 32.7145 125.131 32.4513C124.447 32.1881 123.855 31.8064 123.354 31.3063C122.275 30.2534 121.736 28.832 121.736 27.0422C121.736 25.2655 122.275 23.8441 123.354 22.7781C124.394 21.7515 125.743 21.2382 127.401 21.2382C128.204 21.2382 128.889 21.3369 129.454 21.5344C130.034 21.7318 130.474 21.916 130.777 22.0871C131.08 22.245 131.264 22.3767 131.33 22.4819C131.409 22.5741 131.448 22.6991 131.448 22.857C131.448 23.015 131.389 23.1597 131.271 23.2913C131.152 23.4098 131.014 23.469 130.856 23.469C130.711 23.469 130.593 23.4493 130.501 23.4098C130.066 23.1729 129.619 22.9886 129.158 22.857C128.711 22.7123 128.152 22.6399 127.48 22.6399C126.809 22.6399 126.197 22.7583 125.644 22.9952C125.105 23.2189 124.651 23.5282 124.282 23.9231C123.558 24.7127 123.203 25.7524 123.216 27.0422C123.216 28.3319 123.572 29.3716 124.282 30.1613C125.072 31.0167 126.158 31.4445 127.54 31.4445C128.171 31.4445 128.711 31.3787 129.158 31.2471C129.619 31.1023 130.066 30.9115 130.501 30.6746ZM142.879 31.7208C142.931 31.8525 142.957 31.9906 142.957 32.1354C142.957 32.267 142.892 32.4052 142.76 32.55C142.642 32.6948 142.438 32.7671 142.148 32.7671C141.872 32.7671 141.668 32.6158 141.536 32.3131L140.49 29.8059H134.982L133.955 32.3131C133.824 32.6158 133.613 32.7671 133.324 32.7671C133.047 32.7671 132.843 32.6948 132.712 32.55C132.593 32.4052 132.534 32.267 132.534 32.1354C132.534 31.9906 132.56 31.8525 132.613 31.7208L136.719 21.9884C136.904 21.5409 137.219 21.3172 137.667 21.3172H137.825C138.259 21.3172 138.575 21.5409 138.772 21.9884L142.879 31.7208ZM139.937 28.4635L137.746 23.1926L135.555 28.4635H139.937ZM152.315 21.3962C152.512 21.3962 152.677 21.4686 152.808 21.6133C152.94 21.7449 153.006 21.9029 153.006 22.0871C153.006 22.2714 152.94 22.4359 152.808 22.5806C152.677 22.7123 152.512 22.7781 152.315 22.7781H149.018V32.0367C149.018 32.2341 148.946 32.4052 148.801 32.55C148.669 32.6948 148.498 32.7671 148.288 32.7671C148.09 32.7671 147.919 32.6948 147.774 32.55C147.63 32.4052 147.557 32.2341 147.557 32.0367V22.7781H144.26C144.076 22.7781 143.912 22.7123 143.767 22.5806C143.635 22.449 143.569 22.2845 143.569 22.0871C143.569 21.9029 143.635 21.7449 143.767 21.6133C143.898 21.4686 144.063 21.3962 144.26 21.3962H152.315ZM155.513 21.3172C155.71 21.3172 155.881 21.3896 156.026 21.5344C156.184 21.6791 156.263 21.8568 156.263 22.0674V32.0367C156.263 32.2341 156.191 32.4052 156.046 32.55C155.901 32.6948 155.724 32.7671 155.513 32.7671C155.316 32.7671 155.144 32.6948 155 32.55C154.855 32.4052 154.783 32.2341 154.783 32.0367V22.0674C154.783 21.87 154.855 21.6989 155 21.5541C155.144 21.3962 155.316 21.3172 155.513 21.3172ZM160.271 22.857C161.297 21.7778 162.666 21.2382 164.377 21.2382C166.088 21.2382 167.456 21.7778 168.483 22.857C169.483 23.9231 170.003 25.3181 170.043 27.0422C170.003 28.7531 169.483 30.1481 168.483 31.2273C167.456 32.3065 166.088 32.8461 164.377 32.8461C162.666 32.8461 161.297 32.3065 160.271 31.2273C159.244 30.1481 158.718 28.7531 158.691 27.0422C158.718 25.3313 159.244 23.9362 160.271 22.857ZM164.377 31.4642C165.693 31.4642 166.726 31.0431 167.476 30.2008C168.213 29.3848 168.582 28.3319 168.582 27.0422C168.582 25.7524 168.213 24.6995 167.476 23.8836C166.713 23.0281 165.68 22.607 164.377 22.6201C163.061 22.6201 162.021 23.0413 161.258 23.8836C160.521 24.6995 160.159 25.7524 160.172 27.0422C160.172 28.3319 160.534 29.3848 161.258 30.2008C162.021 31.0431 163.061 31.4642 164.377 31.4642ZM181.591 21.3172C181.789 21.3172 181.96 21.3896 182.104 21.5344C182.249 21.6791 182.322 21.8568 182.322 22.0674V31.7208C182.322 32.0104 182.216 32.2604 182.006 32.471C181.795 32.6684 181.545 32.7671 181.256 32.7671H181.058C180.703 32.7671 180.42 32.6224 180.209 32.3328L173.951 23.2913V32.0367C173.951 32.2341 173.879 32.4052 173.734 32.55C173.589 32.6948 173.412 32.7671 173.201 32.7671C173.004 32.7671 172.833 32.6948 172.688 32.55C172.543 32.4052 172.471 32.2341 172.471 32.0367V22.3832C172.471 22.0937 172.569 21.8436 172.767 21.6331C172.977 21.4225 173.234 21.3172 173.537 21.3172H173.734C174.076 21.3172 174.379 21.4817 174.642 21.8107L180.861 30.793V22.0674C180.861 21.87 180.933 21.6989 181.078 21.5541C181.223 21.3962 181.394 21.3172 181.591 21.3172Z" fill="white"/>
<path d="M89.3641 39.6472C89.9267 39.6472 90.3487 39.7928 90.63 40.084C90.862 40.3159 90.9804 40.6195 90.9854 40.9946C90.9854 41.3647 90.8669 41.6682 90.63 41.9051C90.3438 42.1963 89.9218 42.3419 89.3641 42.3419H88.2611V43.6374C88.2611 43.7114 88.2339 43.7756 88.1796 43.8299C88.1253 43.8842 88.0587 43.9113 87.9797 43.9113C87.9057 43.9113 87.8416 43.8842 87.7873 43.8299C87.733 43.7756 87.7058 43.7114 87.7058 43.6374V39.9285C87.7058 39.8545 87.733 39.7903 87.7873 39.736C87.8416 39.6768 87.9057 39.6472 87.9797 39.6472H89.3641ZM89.3123 41.8237C89.7268 41.8237 90.0279 41.7349 90.2154 41.5572C90.3635 41.419 90.4351 41.2314 90.4301 40.9946C90.4301 40.6195 90.2426 40.3702 89.8675 40.2469C89.7194 40.1975 89.5344 40.1704 89.3123 40.1654H88.2611V41.8237H89.3123ZM103.095 43.3339C103.174 43.3339 103.239 43.361 103.288 43.4153C103.342 43.4647 103.369 43.5288 103.369 43.6078C103.369 43.6818 103.342 43.746 103.288 43.8003C103.239 43.8546 103.174 43.8817 103.095 43.8817H100.941C100.833 43.8817 100.741 43.8447 100.667 43.7707C100.593 43.6966 100.556 43.6053 100.556 43.4968V39.8989C100.556 39.8249 100.583 39.7607 100.638 39.7064C100.692 39.6472 100.756 39.6176 100.83 39.6176C100.904 39.6176 100.968 39.6447 101.023 39.699C101.082 39.7533 101.111 39.8199 101.111 39.8989V43.3339H103.095ZM116.294 43.519C116.313 43.5683 116.323 43.6201 116.323 43.6744C116.323 43.7238 116.299 43.7756 116.249 43.8299C116.205 43.8842 116.128 43.9113 116.02 43.9113C115.916 43.9113 115.84 43.8546 115.79 43.7411L115.398 42.8009H113.333L112.948 43.7411C112.898 43.8546 112.819 43.9113 112.711 43.9113C112.607 43.9113 112.531 43.8842 112.481 43.8299C112.437 43.7756 112.415 43.7238 112.415 43.6744C112.415 43.6201 112.424 43.5683 112.444 43.519L113.984 39.8693C114.053 39.7015 114.172 39.6176 114.339 39.6176H114.399C114.561 39.6176 114.68 39.7015 114.754 39.8693L116.294 43.519ZM115.191 42.2975L114.369 40.3209L113.547 42.2975H115.191ZM128.626 39.6472C128.7 39.6472 128.762 39.6744 128.811 39.7286C128.86 39.778 128.885 39.8372 128.885 39.9063C128.885 39.9754 128.86 40.0371 128.811 40.0914C128.762 40.1407 128.7 40.1654 128.626 40.1654H127.39V43.6374C127.39 43.7114 127.362 43.7756 127.308 43.8299C127.259 43.8842 127.195 43.9113 127.116 43.9113C127.042 43.9113 126.978 43.8842 126.923 43.8299C126.869 43.7756 126.842 43.7114 126.842 43.6374V40.1654H125.606C125.536 40.1654 125.475 40.1407 125.42 40.0914C125.371 40.042 125.346 39.9803 125.346 39.9063C125.346 39.8372 125.371 39.778 125.42 39.7286C125.47 39.6744 125.531 39.6472 125.606 39.6472H128.626ZM138.9 40.1654V41.5054H140.766C140.835 41.5054 140.896 41.53 140.951 41.5794C141.005 41.6287 141.032 41.6904 141.032 41.7645C141.032 41.8336 141.005 41.8952 140.951 41.9495C140.901 41.9989 140.84 42.0236 140.766 42.0236H138.9V43.6374C138.9 43.7114 138.873 43.7756 138.819 43.8299C138.764 43.8842 138.698 43.9113 138.619 43.9113C138.545 43.9113 138.481 43.8842 138.426 43.8299C138.372 43.7756 138.345 43.7114 138.345 43.6374V39.9285C138.345 39.8545 138.372 39.7903 138.426 39.736C138.481 39.6768 138.545 39.6472 138.619 39.6472H140.98C141.049 39.6472 141.109 39.6744 141.158 39.7286C141.212 39.778 141.239 39.8372 141.239 39.9063C141.239 39.9754 141.215 40.0371 141.165 40.0914C141.116 40.1407 141.054 40.1654 140.98 40.1654H138.9ZM151.173 40.195C151.558 39.7903 152.071 39.588 152.713 39.588C153.354 39.588 153.868 39.7903 154.253 40.195C154.628 40.5948 154.823 41.1179 154.837 41.7645C154.823 42.4061 154.628 42.9292 154.253 43.3339C153.868 43.7386 153.354 43.9409 152.713 43.9409C152.071 43.9409 151.558 43.7386 151.173 43.3339C150.788 42.9292 150.591 42.4061 150.581 41.7645C150.591 41.1229 150.788 40.5997 151.173 40.195ZM152.713 43.4227C153.206 43.4227 153.594 43.2648 153.875 42.9489C154.151 42.6429 154.29 42.2481 154.29 41.7645C154.29 41.2808 154.151 40.886 153.875 40.58C153.589 40.2592 153.201 40.1013 152.713 40.1062C152.219 40.1062 151.829 40.2641 151.543 40.58C151.267 40.886 151.131 41.2808 151.136 41.7645C151.136 42.2481 151.272 42.6429 151.543 42.9489C151.829 43.2648 152.219 43.4227 152.713 43.4227ZM167.843 43.6374C167.843 43.7114 167.816 43.7756 167.762 43.8299C167.713 43.8842 167.646 43.9113 167.562 43.9113C167.483 43.9113 167.416 43.8866 167.362 43.8373C167.313 43.7879 167.288 43.7213 167.288 43.6374V43.4523C167.288 43.1266 167.251 42.8872 167.177 42.7343C167.108 42.5813 167.009 42.4603 166.881 42.3715C166.758 42.2777 166.58 42.2309 166.348 42.2309H165.097V43.6374C165.097 43.7114 165.07 43.7756 165.015 43.8299C164.961 43.8842 164.894 43.9113 164.816 43.9113C164.741 43.9113 164.677 43.8842 164.623 43.8299C164.569 43.7756 164.542 43.7114 164.542 43.6374V39.9285C164.542 39.8545 164.569 39.7903 164.623 39.736C164.677 39.6768 164.741 39.6472 164.816 39.6472H166.229C166.782 39.6472 167.202 39.7657 167.488 40.0026C167.754 40.2246 167.885 40.5158 167.88 40.8761C167.88 41.1081 167.814 41.3277 167.68 41.535C167.552 41.7373 167.352 41.8829 167.081 41.9717C167.372 42.0458 167.584 42.258 167.717 42.6084C167.806 42.8354 167.848 43.0871 167.843 43.3635V43.6374ZM166.192 41.7052C166.533 41.7052 166.807 41.6411 167.014 41.5128C167.221 41.3795 167.325 41.1821 167.325 40.9205C167.325 40.6787 167.244 40.4961 167.081 40.3727C166.888 40.2345 166.582 40.1654 166.163 40.1654H165.097V41.7052H166.192ZM181.937 39.6176C182.051 39.6176 182.145 39.6571 182.219 39.736C182.298 39.815 182.337 39.9088 182.337 40.0174V43.6374C182.337 43.7114 182.31 43.7756 182.256 43.8299C182.201 43.8842 182.137 43.9113 182.063 43.9113C181.989 43.9113 181.925 43.8842 181.871 43.8299C181.816 43.7756 181.789 43.7114 181.789 43.6374V40.195L180.383 43.6596C180.353 43.7337 180.304 43.7953 180.235 43.8447C180.166 43.8891 180.087 43.9113 179.998 43.9113C179.909 43.9113 179.83 43.8891 179.761 43.8447C179.692 43.8003 179.64 43.7386 179.605 43.6596L178.206 40.195V43.6374C178.206 43.7114 178.179 43.7756 178.125 43.8299C178.071 43.8842 178.004 43.9113 177.925 43.9113C177.851 43.9113 177.787 43.8842 177.733 43.8299C177.678 43.7756 177.651 43.7114 177.651 43.6374V40.0174C177.651 39.9088 177.688 39.815 177.762 39.736C177.841 39.6571 177.937 39.6176 178.051 39.6176H178.251C178.33 39.6176 178.401 39.6423 178.465 39.6916C178.534 39.741 178.586 39.8002 178.621 39.8693L179.998 43.3043L181.375 39.8693C181.404 39.8002 181.451 39.741 181.515 39.6916C181.585 39.6423 181.661 39.6176 181.745 39.6176H181.937Z" fill="white"/>
<defs>
<clipPath id="clip0_1972_3295">
<rect width="79" height="47" fill="white"/>
</clipPath>
</defs>
</svg>
