<svg width="183" height="47" viewBox="0 0 183 47" fill="none" xmlns="http://www.w3.org/2000/svg">
<g clip-path="url(#clip0_1972_3291)">
<circle cx="54.8334" cy="23.5" r="23.5" fill="#FFA400"/>
<circle cx="23.5" cy="23.5" r="23.5" fill="#007CBE"/>
<ellipse cx="39.4193" cy="23.7527" rx="23.7527" ry="23.2473" fill="#EA526F"/>
<rect x="36.0264" y="7.01228" width="6.78983" height="34.3607" fill="white"/>
<rect x="28.002" y="23.061" width="6.78983" height="22.6328" transform="rotate(-90 28.002 23.061)" fill="white"/>
</g>
<path d="M95.58 13.828C95.6669 13.7846 95.7972 13.7629 95.9709 13.7629C96.1446 13.7629 96.2966 13.8353 96.4269 13.9801C96.5572 14.1103 96.6224 14.2624 96.6224 14.4361C96.6224 14.7546 96.4848 14.9862 96.2098 15.131C95.6597 15.4495 95.0661 15.71 94.4291 15.9127C93.8066 16.1154 93.0466 16.2167 92.149 16.2167C91.2659 16.2167 90.4407 16.072 89.6734 15.7824C88.9206 15.4929 88.2692 15.0731 87.7191 14.5229C86.5319 13.3648 85.9384 11.8013 85.9384 9.83241C85.9384 7.87803 86.5319 6.31452 87.7191 5.14189C88.8627 4.01269 90.3466 3.44809 92.1707 3.44809C93.0538 3.44809 93.8066 3.55667 94.4291 3.77382C95.0661 3.99097 95.5511 4.19365 95.884 4.38185C96.217 4.55557 96.4197 4.70034 96.4921 4.81616C96.5789 4.9175 96.6224 5.05503 96.6224 5.22875C96.6224 5.40247 96.5572 5.56172 96.4269 5.70649C96.2966 5.83678 96.1446 5.90193 95.9709 5.90193C95.8117 5.90193 95.6814 5.88021 95.58 5.83678C95.1023 5.5762 94.6101 5.37352 94.1034 5.22875C93.6112 5.0695 92.9959 4.98988 92.2576 4.98988C91.5193 4.98988 90.8461 5.12017 90.238 5.38076C89.6445 5.62687 89.145 5.96707 88.7397 6.40138C87.9434 7.27 87.5526 8.41367 87.567 9.83241C87.567 11.2512 87.9579 12.3948 88.7397 13.2634C89.6083 14.2044 90.8026 14.6749 92.3227 14.6749C93.0176 14.6749 93.6112 14.6026 94.1034 14.4578C94.6101 14.2985 95.1023 14.0886 95.58 13.828ZM108.24 3.53495C108.457 3.53495 108.645 3.61457 108.805 3.77382C108.964 3.93307 109.044 4.1285 109.044 4.36013V15.3264C109.044 15.5436 108.964 15.7318 108.805 15.891C108.645 16.0503 108.457 16.1299 108.24 16.1299C108.023 16.1299 107.835 16.0503 107.676 15.891C107.516 15.7318 107.437 15.5436 107.437 15.3264V10.6142H100.683V15.3264C100.683 15.5436 100.604 15.7318 100.444 15.891C100.285 16.0503 100.09 16.1299 99.858 16.1299C99.6408 16.1299 99.4526 16.0503 99.2934 15.891C99.1341 15.7318 99.0545 15.5436 99.0545 15.3264V4.36013C99.0545 4.14298 99.1341 3.95478 99.2934 3.79553C99.4526 3.62181 99.6408 3.53495 99.858 3.53495C100.075 3.53495 100.263 3.61457 100.423 3.77382C100.596 3.93307 100.683 4.1285 100.683 4.36013V9.09409H107.437V4.36013C107.437 4.14298 107.516 3.95478 107.676 3.79553C107.835 3.62181 108.023 3.53495 108.24 3.53495ZM122.16 15.3264C122.16 15.5436 122.08 15.7318 121.921 15.891C121.776 16.0503 121.581 16.1299 121.334 16.1299C121.103 16.1299 120.907 16.0575 120.748 15.9127C120.603 15.768 120.531 15.5725 120.531 15.3264V14.7835C120.531 13.828 120.422 13.1259 120.205 12.6771C120.003 12.2283 119.713 11.8737 119.337 11.6131C118.975 11.338 118.454 11.2005 117.773 11.2005H114.103V15.3264C114.103 15.5436 114.024 15.7318 113.864 15.891C113.705 16.0503 113.51 16.1299 113.278 16.1299C113.061 16.1299 112.873 16.0503 112.713 15.891C112.554 15.7318 112.475 15.5436 112.475 15.3264V4.447C112.475 4.22984 112.554 4.04164 112.713 3.8824C112.873 3.70867 113.061 3.62181 113.278 3.62181H117.426C119.047 3.62181 120.278 3.96926 121.117 4.66415C121.899 5.31561 122.283 6.16975 122.268 7.22657C122.268 7.90698 122.073 8.55121 121.682 9.15924C121.306 9.75279 120.719 10.1799 119.923 10.4404C120.777 10.6576 121.4 11.2801 121.791 12.308C122.051 12.9739 122.174 13.7122 122.16 14.5229V15.3264ZM117.317 9.65869C118.316 9.65869 119.12 9.47049 119.728 9.09409C120.336 8.70321 120.64 8.12414 120.64 7.35686C120.64 6.64749 120.401 6.11184 119.923 5.74992C119.358 5.34457 118.461 5.14189 117.23 5.14189H114.103V9.65869H117.317ZM125.938 3.53495C126.155 3.53495 126.343 3.61457 126.503 3.77382C126.676 3.93307 126.763 4.1285 126.763 4.36013V15.3264C126.763 15.5436 126.684 15.7318 126.524 15.891C126.365 16.0503 126.17 16.1299 125.938 16.1299C125.721 16.1299 125.533 16.0503 125.374 15.891C125.214 15.7318 125.135 15.5436 125.135 15.3264V4.36013C125.135 4.14298 125.214 3.95478 125.374 3.79553C125.533 3.62181 125.721 3.53495 125.938 3.53495ZM133.929 14.6967C136 14.6967 137.042 14.009 137.056 12.6337C137.056 12.0691 136.658 11.6203 135.862 11.2873C135.515 11.1426 135.109 11.0123 134.646 10.8965C134.197 10.7807 133.741 10.6576 133.278 10.5273C132.815 10.397 132.351 10.2522 131.888 10.093C131.425 9.91927 131.02 9.70212 130.672 9.44154C129.89 8.84798 129.492 8.06623 129.478 7.09627C129.478 6.05394 129.876 5.1998 130.672 4.53386C131.526 3.81001 132.67 3.44809 134.103 3.44809C135.406 3.44809 136.579 3.64353 137.621 4.0344C137.954 4.15022 138.128 4.38909 138.142 4.75101C138.142 4.92474 138.077 5.09122 137.947 5.25047C137.831 5.40971 137.693 5.48934 137.534 5.48934C137.389 5.48934 137.187 5.4459 136.926 5.35904C136.144 5.08398 135.261 4.94645 134.277 4.94645C133.365 4.94645 132.612 5.12017 132.018 5.46762C131.41 5.82954 131.106 6.329 131.106 6.96598C131.106 7.63192 131.497 8.14585 132.279 8.50777C132.641 8.66702 133.046 8.80455 133.495 8.92037C133.944 9.02171 134.407 9.13028 134.885 9.2461C135.363 9.36191 135.819 9.50668 136.253 9.68041C136.702 9.83965 137.107 10.0423 137.469 10.2884C138.251 10.853 138.649 11.6782 138.663 12.764C138.663 13.7774 138.251 14.6026 137.426 15.2395C136.586 15.891 135.478 16.2167 134.103 16.2167C132.598 16.2167 131.186 15.9344 129.869 15.3698C129.738 15.3119 129.623 15.2178 129.521 15.0875C129.42 14.9428 129.369 14.7835 129.369 14.6098C129.369 14.4361 129.434 14.2768 129.565 14.1321C129.695 13.9728 129.84 13.8932 129.999 13.8932C130.173 13.8932 130.383 13.9511 130.629 14.0669C130.889 14.1827 131.309 14.3203 131.888 14.4795C132.467 14.6243 133.148 14.6967 133.929 14.6967ZM149.26 3.62181C149.478 3.62181 149.659 3.70143 149.803 3.86068C149.948 4.00545 150.021 4.17917 150.021 4.38185C150.021 4.58453 149.948 4.76549 149.803 4.92474C149.659 5.0695 149.478 5.14189 149.26 5.14189H145.634V15.3264C145.634 15.5436 145.554 15.7318 145.395 15.891C145.25 16.0503 145.062 16.1299 144.831 16.1299C144.613 16.1299 144.425 16.0503 144.266 15.891C144.107 15.7318 144.027 15.5436 144.027 15.3264V5.14189H140.401C140.198 5.14189 140.017 5.0695 139.858 4.92474C139.713 4.77997 139.641 4.599 139.641 4.38185C139.641 4.17917 139.713 4.00545 139.858 3.86068C140.002 3.70143 140.183 3.62181 140.401 3.62181H149.26ZM152.778 3.53495C152.996 3.53495 153.184 3.61457 153.343 3.77382C153.517 3.93307 153.604 4.1285 153.604 4.36013V15.3264C153.604 15.5436 153.524 15.7318 153.365 15.891C153.205 16.0503 153.01 16.1299 152.778 16.1299C152.561 16.1299 152.373 16.0503 152.214 15.891C152.055 15.7318 151.975 15.5436 151.975 15.3264V4.36013C151.975 4.14298 152.055 3.95478 152.214 3.79553C152.373 3.62181 152.561 3.53495 152.778 3.53495ZM167.154 14.979C167.212 15.1237 167.241 15.2757 167.241 15.435C167.241 15.5798 167.168 15.7318 167.024 15.891C166.893 16.0503 166.669 16.1299 166.35 16.1299C166.046 16.1299 165.822 15.9634 165.677 15.6304L164.526 12.8726H158.468L157.339 15.6304C157.194 15.9634 156.962 16.1299 156.644 16.1299C156.34 16.1299 156.115 16.0503 155.971 15.891C155.84 15.7318 155.775 15.5798 155.775 15.435C155.775 15.2757 155.804 15.1237 155.862 14.979L160.379 4.27327C160.581 3.78106 160.929 3.53495 161.421 3.53495H161.595C162.073 3.53495 162.42 3.78106 162.637 4.27327L167.154 14.979ZM163.918 11.3959L161.508 5.59791L159.098 11.3959H163.918ZM179.423 3.53495C179.64 3.53495 179.829 3.61457 179.988 3.77382C180.147 3.93307 180.227 4.1285 180.227 4.36013V14.979C180.227 15.2975 180.111 15.5725 179.879 15.8041C179.648 16.0213 179.372 16.1299 179.054 16.1299H178.837C178.446 16.1299 178.135 15.9706 177.903 15.6521L171.019 5.70649V15.3264C171.019 15.5436 170.94 15.7318 170.78 15.891C170.621 16.0503 170.426 16.1299 170.194 16.1299C169.977 16.1299 169.789 16.0503 169.63 15.891C169.47 15.7318 169.391 15.5436 169.391 15.3264V4.70758C169.391 4.38909 169.499 4.11403 169.716 3.8824C169.948 3.65077 170.23 3.53495 170.563 3.53495H170.78C171.157 3.53495 171.49 3.71591 171.779 4.07783L178.62 13.9583V4.36013C178.62 4.14298 178.699 3.95478 178.859 3.79553C179.018 3.62181 179.206 3.53495 179.423 3.53495Z" fill="black"/>
<path d="M93.3661 31.3493C93.5503 31.3493 93.7082 31.4217 93.8398 31.5665C93.9846 31.6981 94.057 31.8626 94.057 32.06C94.057 32.2442 93.9846 32.4022 93.8398 32.5338C93.7082 32.6654 93.5503 32.7312 93.3661 32.7312H86.8712C86.6738 32.7312 86.5027 32.6588 86.3579 32.514C86.2131 32.3693 86.1408 32.1982 86.1408 32.0008V22.1894C86.1408 21.9919 86.2131 21.8208 86.3579 21.6761C86.5027 21.5181 86.6738 21.4392 86.8712 21.4392H93.3661C93.5503 21.4392 93.7082 21.5116 93.8398 21.6563C93.9846 21.7879 94.057 21.9459 94.057 22.1301C94.057 22.3144 93.9846 22.4789 93.8398 22.6237C93.7082 22.7553 93.5503 22.8211 93.3661 22.8211H87.6213V26.3942H92.7738C92.9581 26.3942 93.116 26.46 93.2476 26.5917C93.3924 26.7233 93.4648 26.8878 93.4648 27.0852C93.4648 27.2694 93.399 27.4339 93.2673 27.5787C93.1357 27.7103 92.9712 27.7761 92.7738 27.7761H87.6213V31.3493H93.3661ZM100.433 21.4392C102.236 21.4392 103.671 22.0446 104.737 23.2554C105.211 23.7818 105.56 24.3806 105.783 25.0518C106.02 25.723 106.139 26.4008 106.139 27.0852C106.139 27.7695 106.02 28.4473 105.783 29.1185C105.56 29.7897 105.211 30.3886 104.737 30.915C103.671 32.1258 102.236 32.7312 100.433 32.7312H97.1761C96.9787 32.7312 96.8076 32.6588 96.6628 32.514C96.5181 32.3693 96.4457 32.1982 96.4457 32.0008V22.1894C96.4457 21.9919 96.5181 21.8208 96.6628 21.6761C96.8076 21.5181 96.9787 21.4392 97.1761 21.4392H100.433ZM100.256 31.3493C101.598 31.3493 102.677 30.9545 103.493 30.1648C104.296 29.3752 104.698 28.3486 104.698 27.0852C104.698 25.8217 104.296 24.7952 103.493 24.0055C102.677 23.2159 101.598 22.8211 100.256 22.8211H97.9263V31.3493H100.256ZM117.036 21.3602C117.233 21.3602 117.404 21.4326 117.549 21.5774C117.707 21.7221 117.786 21.8998 117.786 22.1104V28.5066C117.786 29.9148 117.279 31.0203 116.266 31.8231C115.397 32.5338 114.351 32.8891 113.127 32.8891C111.89 32.8891 110.844 32.5338 109.988 31.8231C108.988 31.0071 108.488 29.9016 108.488 28.5066V22.1104C108.488 21.913 108.56 21.7419 108.705 21.5971C108.85 21.4392 109.021 21.3602 109.218 21.3602C109.416 21.3602 109.587 21.4326 109.732 21.5774C109.889 21.7221 109.968 21.8998 109.968 22.1104V28.546C109.968 29.5068 110.297 30.2569 110.956 30.7965C111.561 31.2967 112.285 31.5467 113.127 31.5467C113.983 31.5467 114.713 31.2967 115.318 30.7965C115.976 30.2438 116.305 29.4936 116.305 28.546V22.1104C116.305 21.913 116.378 21.7419 116.523 21.5971C116.667 21.4392 116.838 21.3602 117.036 21.3602ZM128.92 30.7176C128.999 30.6781 129.117 30.6584 129.275 30.6584C129.433 30.6584 129.572 30.7242 129.69 30.8558C129.808 30.9742 129.868 31.1124 129.868 31.2703C129.868 31.5599 129.743 31.7704 129.493 31.9021C128.992 32.1916 128.453 32.4285 127.874 32.6127C127.308 32.797 126.617 32.8891 125.801 32.8891C124.998 32.8891 124.248 32.7575 123.55 32.4943C122.866 32.2311 122.274 31.8494 121.774 31.3493C120.695 30.2964 120.155 28.8751 120.155 27.0852C120.155 25.3085 120.695 23.8871 121.774 22.8211C122.813 21.7945 124.162 21.2813 125.821 21.2813C126.624 21.2813 127.308 21.38 127.874 21.5774C128.453 21.7748 128.894 21.959 129.196 22.1301C129.499 22.2881 129.683 22.4197 129.749 22.525C129.828 22.6171 129.868 22.7421 129.868 22.9C129.868 23.058 129.808 23.2027 129.69 23.3343C129.572 23.4528 129.433 23.512 129.275 23.512C129.131 23.512 129.012 23.4923 128.92 23.4528C128.486 23.2159 128.038 23.0316 127.578 22.9C127.13 22.7553 126.571 22.6829 125.9 22.6829C125.228 22.6829 124.616 22.8013 124.064 23.0382C123.524 23.262 123.07 23.5712 122.702 23.9661C121.978 24.7557 121.622 25.7954 121.636 27.0852C121.636 28.3749 121.991 29.4147 122.702 30.2043C123.491 31.0598 124.577 31.4875 125.959 31.4875C126.591 31.4875 127.13 31.4217 127.578 31.2901C128.038 31.1453 128.486 30.9545 128.92 30.7176ZM141.298 31.7639C141.35 31.8955 141.377 32.0337 141.377 32.1784C141.377 32.31 141.311 32.4482 141.179 32.593C141.061 32.7378 140.857 32.8102 140.567 32.8102C140.291 32.8102 140.087 32.6588 139.955 32.3561L138.909 29.849H133.401L132.375 32.3561C132.243 32.6588 132.033 32.8102 131.743 32.8102C131.467 32.8102 131.263 32.7378 131.131 32.593C131.013 32.4482 130.953 32.31 130.953 32.1784C130.953 32.0337 130.98 31.8955 131.032 31.7639L135.139 22.0314C135.323 21.584 135.639 21.3602 136.086 21.3602H136.244C136.678 21.3602 136.994 21.584 137.192 22.0314L141.298 31.7639ZM138.356 28.5066L136.165 23.2356L133.974 28.5066H138.356ZM150.734 21.4392C150.932 21.4392 151.096 21.5116 151.228 21.6563C151.359 21.7879 151.425 21.9459 151.425 22.1301C151.425 22.3144 151.359 22.4789 151.228 22.6237C151.096 22.7553 150.932 22.8211 150.734 22.8211H147.437V32.0797C147.437 32.2771 147.365 32.4482 147.22 32.593C147.089 32.7378 146.918 32.8102 146.707 32.8102C146.51 32.8102 146.338 32.7378 146.194 32.593C146.049 32.4482 145.977 32.2771 145.977 32.0797V22.8211H142.68C142.495 22.8211 142.331 22.7553 142.186 22.6237C142.055 22.4921 141.989 22.3275 141.989 22.1301C141.989 21.9459 142.055 21.7879 142.186 21.6563C142.318 21.5116 142.482 21.4392 142.68 21.4392H150.734ZM153.932 21.3602C154.13 21.3602 154.301 21.4326 154.446 21.5774C154.603 21.7221 154.682 21.8998 154.682 22.1104V32.0797C154.682 32.2771 154.61 32.4482 154.465 32.593C154.32 32.7378 154.143 32.8102 153.932 32.8102C153.735 32.8102 153.564 32.7378 153.419 32.593C153.274 32.4482 153.202 32.2771 153.202 32.0797V22.1104C153.202 21.913 153.274 21.7419 153.419 21.5971C153.564 21.4392 153.735 21.3602 153.932 21.3602ZM158.69 22.9C159.716 21.8208 161.085 21.2813 162.796 21.2813C164.507 21.2813 165.876 21.8208 166.902 22.9C167.902 23.9661 168.422 25.3611 168.462 27.0852C168.422 28.7961 167.902 30.1911 166.902 31.2703C165.876 32.3495 164.507 32.8891 162.796 32.8891C161.085 32.8891 159.716 32.3495 158.69 31.2703C157.663 30.1911 157.137 28.7961 157.111 27.0852C157.137 25.3743 157.663 23.9792 158.69 22.9ZM162.796 31.5072C164.112 31.5072 165.145 31.0861 165.895 30.2438C166.632 29.4278 167.001 28.3749 167.001 27.0852C167.001 25.7954 166.632 24.7426 165.895 23.9266C165.132 23.0711 164.099 22.65 162.796 22.6631C161.48 22.6631 160.44 23.0843 159.677 23.9266C158.94 24.7426 158.578 25.7954 158.591 27.0852C158.591 28.3749 158.953 29.4278 159.677 30.2438C160.44 31.0861 161.48 31.5072 162.796 31.5072ZM180.01 21.3602C180.208 21.3602 180.379 21.4326 180.524 21.5774C180.669 21.7221 180.741 21.8998 180.741 22.1104V31.7639C180.741 32.0534 180.636 32.3035 180.425 32.514C180.214 32.7114 179.964 32.8102 179.675 32.8102H179.477C179.122 32.8102 178.839 32.6654 178.629 32.3758L172.371 23.3343V32.0797C172.371 32.2771 172.298 32.4482 172.153 32.593C172.009 32.7378 171.831 32.8102 171.62 32.8102C171.423 32.8102 171.252 32.7378 171.107 32.593C170.962 32.4482 170.89 32.2771 170.89 32.0797V22.4262C170.89 22.1367 170.989 21.8867 171.186 21.6761C171.397 21.4655 171.653 21.3602 171.956 21.3602H172.153C172.496 21.3602 172.798 21.5247 173.062 21.8537L179.28 30.836V22.1104C179.28 21.913 179.352 21.7419 179.497 21.5971C179.642 21.4392 179.813 21.3602 180.01 21.3602Z" fill="black"/>
<path d="M87.7834 39.6902C88.346 39.6902 88.768 39.8358 89.0493 40.127C89.2813 40.359 89.3997 40.6625 89.4047 41.0376C89.4047 41.4077 89.2862 41.7113 89.0493 41.9481C88.7631 42.2393 88.3411 42.3849 87.7834 42.3849H86.6804V43.6804C86.6804 43.7545 86.6532 43.8186 86.5989 43.8729C86.5446 43.9272 86.478 43.9544 86.3991 43.9544C86.325 43.9544 86.2609 43.9272 86.2066 43.8729C86.1523 43.8186 86.1251 43.7545 86.1251 43.6804V39.9716C86.1251 39.8975 86.1523 39.8334 86.2066 39.7791C86.2609 39.7199 86.325 39.6902 86.3991 39.6902H87.7834ZM87.7316 41.8667C88.1462 41.8667 88.4472 41.7779 88.6348 41.6002C88.7828 41.462 88.8544 41.2745 88.8494 41.0376C88.8494 40.6625 88.6619 40.4133 88.2868 40.2899C88.1388 40.2405 87.9537 40.2134 87.7316 40.2085H86.6804V41.8667H87.7316ZM101.515 43.3769C101.594 43.3769 101.658 43.4041 101.707 43.4584C101.762 43.5077 101.789 43.5719 101.789 43.6508C101.789 43.7249 101.762 43.789 101.707 43.8433C101.658 43.8976 101.594 43.9247 101.515 43.9247H99.3605C99.2519 43.9247 99.1606 43.8877 99.0866 43.8137C99.0125 43.7397 98.9755 43.6484 98.9755 43.5398V39.9419C98.9755 39.8679 99.0027 39.8038 99.057 39.7495C99.1112 39.6902 99.1754 39.6606 99.2494 39.6606C99.3235 39.6606 99.3876 39.6878 99.4419 39.7421C99.5011 39.7964 99.5307 39.863 99.5307 39.9419V43.3769H101.515ZM114.713 43.562C114.733 43.6114 114.743 43.6632 114.743 43.7175C114.743 43.7668 114.718 43.8186 114.669 43.8729C114.624 43.9272 114.548 43.9544 114.439 43.9544C114.336 43.9544 114.259 43.8976 114.21 43.7841L113.817 42.8439H111.752L111.367 43.7841C111.318 43.8976 111.239 43.9544 111.13 43.9544C111.026 43.9544 110.95 43.9272 110.901 43.8729C110.856 43.8186 110.834 43.7668 110.834 43.7175C110.834 43.6632 110.844 43.6114 110.864 43.562L112.403 39.9123C112.472 39.7445 112.591 39.6606 112.759 39.6606H112.818C112.981 39.6606 113.099 39.7445 113.173 39.9123L114.713 43.562ZM113.61 42.3405L112.788 40.3639L111.967 42.3405H113.61ZM127.045 39.6902C127.119 39.6902 127.181 39.7174 127.23 39.7717C127.28 39.821 127.304 39.8803 127.304 39.9493C127.304 40.0184 127.28 40.0801 127.23 40.1344C127.181 40.1838 127.119 40.2085 127.045 40.2085H125.809V43.6804C125.809 43.7545 125.782 43.8186 125.728 43.8729C125.678 43.9272 125.614 43.9544 125.535 43.9544C125.461 43.9544 125.397 43.9272 125.343 43.8729C125.288 43.8186 125.261 43.7545 125.261 43.6804V40.2085H124.025C123.956 40.2085 123.894 40.1838 123.84 40.1344C123.79 40.0851 123.766 40.0234 123.766 39.9493C123.766 39.8803 123.79 39.821 123.84 39.7717C123.889 39.7174 123.951 39.6902 124.025 39.6902H127.045ZM137.319 40.2085V41.5484H139.185C139.254 41.5484 139.316 41.5731 139.37 41.6224C139.424 41.6718 139.451 41.7335 139.451 41.8075C139.451 41.8766 139.424 41.9383 139.37 41.9926C139.321 42.0419 139.259 42.0666 139.185 42.0666H137.319V43.6804C137.319 43.7545 137.292 43.8186 137.238 43.8729C137.184 43.9272 137.117 43.9544 137.038 43.9544C136.964 43.9544 136.9 43.9272 136.846 43.8729C136.791 43.8186 136.764 43.7545 136.764 43.6804V39.9716C136.764 39.8975 136.791 39.8334 136.846 39.7791C136.9 39.7199 136.964 39.6902 137.038 39.6902H139.4C139.469 39.6902 139.528 39.7174 139.577 39.7717C139.632 39.821 139.659 39.8803 139.659 39.9493C139.659 40.0184 139.634 40.0801 139.585 40.1344C139.535 40.1838 139.474 40.2085 139.4 40.2085H137.319ZM149.592 40.2381C149.977 39.8334 150.491 39.631 151.132 39.631C151.774 39.631 152.287 39.8334 152.672 40.2381C153.047 40.6378 153.242 41.161 153.257 41.8075C153.242 42.4491 153.047 42.9722 152.672 43.3769C152.287 43.7816 151.774 43.984 151.132 43.984C150.491 43.984 149.977 43.7816 149.592 43.3769C149.207 42.9722 149.01 42.4491 149 41.8075C149.01 41.1659 149.207 40.6428 149.592 40.2381ZM151.132 43.4658C151.626 43.4658 152.013 43.3078 152.294 42.992C152.571 42.686 152.709 42.2912 152.709 41.8075C152.709 41.3238 152.571 40.929 152.294 40.623C152.008 40.3022 151.621 40.1443 151.132 40.1492C150.639 40.1492 150.249 40.3072 149.962 40.623C149.686 40.929 149.55 41.3238 149.555 41.8075C149.555 42.2912 149.691 42.686 149.962 42.992C150.249 43.3078 150.639 43.4658 151.132 43.4658ZM166.263 43.6804C166.263 43.7545 166.235 43.8186 166.181 43.8729C166.132 43.9272 166.065 43.9544 165.981 43.9544C165.902 43.9544 165.836 43.9297 165.781 43.8803C165.732 43.831 165.707 43.7643 165.707 43.6804V43.4954C165.707 43.1696 165.67 42.9303 165.596 42.7773C165.527 42.6243 165.429 42.5034 165.3 42.4145C165.177 42.3208 164.999 42.2739 164.767 42.2739H163.516V43.6804C163.516 43.7545 163.489 43.8186 163.435 43.8729C163.38 43.9272 163.314 43.9544 163.235 43.9544C163.161 43.9544 163.097 43.9272 163.042 43.8729C162.988 43.8186 162.961 43.7545 162.961 43.6804V39.9716C162.961 39.8975 162.988 39.8334 163.042 39.7791C163.097 39.7199 163.161 39.6902 163.235 39.6902H164.649C165.202 39.6902 165.621 39.8087 165.907 40.0456C166.174 40.2677 166.305 40.5589 166.3 40.9191C166.3 41.1511 166.233 41.3707 166.1 41.578C165.971 41.7803 165.772 41.9259 165.5 42.0148C165.791 42.0888 166.004 42.301 166.137 42.6514C166.226 42.8785 166.268 43.1302 166.263 43.4065V43.6804ZM164.612 41.7483C164.952 41.7483 165.226 41.6841 165.433 41.5558C165.641 41.4225 165.744 41.2251 165.744 40.9636C165.744 40.7217 165.663 40.5391 165.5 40.4157C165.308 40.2775 165.002 40.2085 164.582 40.2085H163.516V41.7483H164.612ZM180.357 39.6606C180.47 39.6606 180.564 39.7001 180.638 39.7791C180.717 39.858 180.756 39.9518 180.756 40.0604V43.6804C180.756 43.7545 180.729 43.8186 180.675 43.8729C180.621 43.9272 180.557 43.9544 180.483 43.9544C180.409 43.9544 180.344 43.9272 180.29 43.8729C180.236 43.8186 180.209 43.7545 180.209 43.6804V40.2381L178.802 43.7027C178.772 43.7767 178.723 43.8384 178.654 43.8877C178.585 43.9321 178.506 43.9544 178.417 43.9544C178.328 43.9544 178.249 43.9321 178.18 43.8877C178.111 43.8433 178.059 43.7816 178.025 43.7027L176.626 40.2381V43.6804C176.626 43.7545 176.598 43.8186 176.544 43.8729C176.49 43.9272 176.423 43.9544 176.344 43.9544C176.27 43.9544 176.206 43.9272 176.152 43.8729C176.098 43.8186 176.07 43.7545 176.07 43.6804V40.0604C176.07 39.9518 176.107 39.858 176.181 39.7791C176.26 39.7001 176.357 39.6606 176.47 39.6606H176.67C176.749 39.6606 176.821 39.6853 176.885 39.7347C176.954 39.784 177.006 39.8432 177.04 39.9123L178.417 43.3473L179.794 39.9123C179.824 39.8432 179.871 39.784 179.935 39.7347C180.004 39.6853 180.08 39.6606 180.164 39.6606H180.357Z" fill="black"/>
<defs>
<clipPath id="clip0_1972_3291">
<rect width="79" height="47" fill="white"/>
</clipPath>
</defs>
</svg>
