<svg width="22" height="28" viewBox="0 0 22 28" fill="none" xmlns="http://www.w3.org/2000/svg">
<path d="M18.6 9.6C19.6 9 20.3 8.1 20.7 7C21.1 5.9 21.1 4.8 20.8 3.7C20.5 2.6 19.8 1.7 18.9 1C18 0.3 16.8 0 15.7 0H6.49999C5.29999 0 4.19999 0.4 3.29999 1C2.19999 1.7 1.59999 2.7 1.19999 3.7C0.899989 4.8 0.899989 6 1.29999 7C1.69999 8.1 2.39999 9 3.39999 9.6C2.69999 10.1 1.99999 10.7 1.59999 11.5C1.19999 12.3 0.999989 13.1 0.999989 14C0.999989 14.9 1.19999 15.7 1.59999 16.5C1.99999 17.3 2.59999 17.9 3.39999 18.4C2.39999 19 1.69999 19.9 1.29999 21C0.899989 22.1 0.899989 23.2 1.19999 24.3C1.49999 25.4 2.19999 26.3 3.19999 27C4.09999 27.7 5.29999 28 6.39999 28C7.79999 28 9.19999 27.4 10.3 26.5C11.3 25.5 11.9 24.2 11.9 22.8V18C12.9 18.9 14.2 19.4 15.5 19.4H15.6C16.8 19.4 17.9 19 18.8 18.4C19.7 17.7 20.4 16.8 20.7 15.7C21 14.6 21 13.5 20.6 12.4C20.3 11.1 19.5 10.2 18.6 9.6ZM11.9 1.7H15.6C16.1 1.7 16.6 1.7 17 1.9C17.5 2.1 17.9 2.3 18.2 2.7C18.6 3 18.8 3.4 19 3.9C19.2 4.4 19.3 4.8 19.3 5.3C19.3 5.8 19.2 6.3 19 6.7C18.8 7.1 18.5 7.5 18.2 7.9C17.8 8.2 17.4 8.5 17 8.7C16.5 8.9 16 8.9 15.6 8.9H11.9V1.7ZM6.39999 1.7H10.1V8.7H6.39999C5.49999 8.7 4.59999 8.3 3.99999 7.6C3.29999 7 2.99999 6.1 2.99999 5.2C2.99999 4.3 3.39999 3.4 3.99999 2.8C4.59999 2.2 5.49999 1.8 6.39999 1.7ZM2.79999 14C2.79999 13.1 3.19999 12.2 3.89999 11.5C4.59999 10.8 5.49999 10.5 6.49999 10.5H10.2V17.5H6.49999C5.49999 17.5 4.59999 17.1 3.89999 16.5C3.19999 15.8 2.79999 14.9 2.79999 14ZM10.1 22.7C10.1 23.7 9.69999 24.6 8.99999 25.2C8.29999 25.9 7.39999 26.2 6.39999 26.2C5.89999 26.2 5.39999 26.2 4.99999 26C4.49999 25.8 4.09999 25.6 3.79999 25.3C3.39999 25 3.19999 24.6 2.99999 24.1C2.79999 23.7 2.69999 23.2 2.69999 22.7C2.69999 22.2 2.79999 21.7 2.99999 21.3C3.19999 20.9 3.49999 20.5 3.79999 20.1C4.19999 19.8 4.59999 19.5 4.99999 19.3C5.49999 19.1 5.99999 19.1 6.39999 19.1H10.1V22.7ZM15.6 17.5H15.5C14.6 17.5 13.7 17.1 13.1 16.4C12.5 15.7 12.1 14.9 12.1 14C12.1 13.1 12.5 12.2 13.1 11.6C13.7 10.9 14.6 10.6 15.5 10.5H15.6C16.1 10.5 16.6 10.5 17 10.7C17.5 10.9 17.9 11.1 18.2 11.5C18.6 11.8 18.8 12.2 19 12.7C19.2 13.1 19.3 13.6 19.3 14.1C19.3 14.6 19.2 15.1 19 15.5C18.8 15.9 18.5 16.3 18.2 16.7C17.8 17 17.4 17.3 17 17.5H15.6Z" fill="black"/>
</svg>
