<svg width="142" height="116" viewBox="0 0 142 116" fill="none" xmlns="http://www.w3.org/2000/svg">
<g opacity="0.3" clip-path="url(#clip0_3251_17957)">
<path fill-rule="evenodd" clip-rule="evenodd" d="M0.622742 97.8829C21.7979 87.8177 32.3853 75.9914 32.3853 62.4035C23.3598 61.397 15.8966 57.8323 9.99529 51.7093C4.09402 45.5864 1.14344 38.499 1.14344 30.4469C1.14344 21.8915 4.00725 14.6783 9.73495 8.80694C15.4626 2.93562 22.6656 3.33786e-06 31.3439 3.33786e-06C41.0636 3.33786e-06 49.4815 3.81631 56.5977 11.449C63.714 19.0817 67.272 28.3499 67.272 39.2538C67.272 71.9655 48.3535 97.5473 10.516 116L0.622742 97.8829ZM75.3507 97.8829C96.6994 87.8177 107.374 75.9914 107.374 62.4035C98.1746 61.397 90.6245 57.8323 84.7233 51.7093C78.822 45.5864 75.8714 38.499 75.8714 30.4469C75.8714 21.8915 78.7786 14.6783 84.5931 8.80694C90.4076 2.93562 97.6539 3.33786e-06 106.332 3.33786e-06C116.052 3.33786e-06 124.426 3.81631 131.456 11.449C138.485 19.0817 142 28.3499 142 39.2538C142 71.9655 123.168 97.5473 85.5043 116L75.3507 97.8829Z" fill="#007CBE"/>
</g>
<defs>
<clipPath id="clip0_3251_17957">
<rect width="142" height="116" fill="white" transform="matrix(-1 0 0 -1 142 116)"/>
</clipPath>
</defs>
</svg>
